<svg xmlns="http://www.w3.org/2000/svg"
     width="50mm"
     height="50mm"
     viewBox="0 0 50 50">
<rect x="2.939" y="4.82"
      width="3.561" height="0.6"
      rx="0.3"

      transform="rotate(79.45 6.2 5.12)"
/>
<rect x="2" y="5.5"
      width="4.5" height="2.831"
      rx="0.4"

/><rect x="13.23" y="4.82"
      width="3.27" height="0.6"
      rx="0.3"

      transform="rotate(81.195 16.2 5.12)"
/>
<rect x="12" y="5.5"
      width="4.5" height="2.324"
      rx="0.4"

/><rect x="25.029" y="4.82"
      width="1.471" height="0.6"
      rx="0.3"

      transform="rotate(32.645 26.2 5.12)"
/>
<rect x="22" y="5.5"
      width="4.5" height="2.991"
      rx="0.4"

/><rect x="3.178" y="15.82"
      width="3.322" height="0.6"
      rx="0.3"

      transform="rotate(24.275 6.2 16.1)"
/>
<rect x="2" y="16.5"
      width="4.5" height="2.338"
      rx="0.4"

/><rect x="14.138" y="15.82"
      width="2.362" height="0.6"
      rx="0.3"

      transform="rotate(20.375 16.2 16.1)"
/>
<rect x="12" y="16.5"
      width="4.5" height="3.034"
      rx="0.4"

/><rect x="24.149" y="15.82"
      width="2.351" height="0.6"
      rx="0.3"

      transform="rotate(81.43 26.2 16.1)"
/>
<rect x="22" y="16.5"
      width="4.5" height="2.556"
      rx="0.4"

/><rect x="2.736" y="26.82"
      width="3.764" height="0.6"
      rx="0.3"

      transform="rotate(163.45 6.2 27.1)"
/>
<rect x="2" y="27.5"
      width="4.5" height="2.991"
      rx="0.4"

/><rect x="12.624" y="26.82"
      width="3.876" height="0.6"
      rx="0.3"

      transform="rotate(171.61 16.2 27.1)"
/>
<rect x="12" y="27.5"
      width="4.5" height="2.512"
      rx="0.4"

/><rect x="24.004" y="26.82"
      width="2.496" height="0.6"
      rx="0.3"

      transform="rotate(33.805 26.2 27.1)"
/>
<rect x="22" y="27.5"
      width="4.5" height="2.643"
      rx="0.4"

/><rect x="2.069" y="37.82"
      width="4.431" height="0.6"
      rx="0.3"

      transform="rotate(104.06 6.2 38.1)"
/>
<rect x="2" y="38.5"
      width="4.5" height="2.614"
      rx="0.4"

/><rect x="14.102" y="37.82"
      width="2.398" height="0.6"
      rx="0.3"

      transform="rotate(148.765 16.2 38.1)"
/>
<rect x="12" y="38.5"
      width="4.5" height="2.512"
      rx="0.4"

/><rect x="22.275" y="37.82"
      width="4.225" height="0.6"
      rx="0.3"

      transform="rotate(63.415 26.2 38.1)"
/>
<rect x="22" y="38.5"
      width="4.5" height="2.599"
      rx="0.4"

/>
</svg>