<svg xmlns="http://www.w3.org/2000/svg"
     width="104mm"
     height="154.0mm"
     viewBox="0 0 104 154.0">
<rect x="5.6" y="4.82"
      width="0.9" height="0.6"
      rx="0.3"

      transform="rotate(0.0 6.2 5.12)"
/>
<rect x="2" y="5.5"
      width="4.5" height="0.8"
      rx="0.4"

/><rect x="15.6" y="4.82"
      width="0.9" height="0.6"
      rx="0.3"

      transform="rotate(20.0 16.2 5.12)"
/>
<rect x="12" y="5.5"
      width="4.5" height="0.8"
      rx="0.4"

/><rect x="25.6" y="4.82"
      width="0.9" height="0.6"
      rx="0.3"

      transform="rotate(40.0 26.2 5.12)"
/>
<rect x="22" y="5.5"
      width="4.5" height="0.8"
      rx="0.4"

/><rect x="35.6" y="4.82"
      width="0.9" height="0.6"
      rx="0.3"

      transform="rotate(60.0 36.2 5.12)"
/>
<rect x="32" y="5.5"
      width="4.5" height="0.8"
      rx="0.4"

/><rect x="45.6" y="4.82"
      width="0.9" height="0.6"
      rx="0.3"

      transform="rotate(80.0 46.2 5.12)"
/>
<rect x="42" y="5.5"
      width="4.5" height="0.8"
      rx="0.4"

/><rect x="55.6" y="4.82"
      width="0.9" height="0.6"
      rx="0.3"

      transform="rotate(100.0 56.2 5.12)"
/>
<rect x="52" y="5.5"
      width="4.5" height="0.8"
      rx="0.4"

/><rect x="65.6" y="4.82"
      width="0.9" height="0.6"
      rx="0.3"

      transform="rotate(120.0 66.2 5.12)"
/>
<rect x="62" y="5.5"
      width="4.5" height="0.8"
      rx="0.4"

/><rect x="75.6" y="4.82"
      width="0.9" height="0.6"
      rx="0.3"

      transform="rotate(140.0 76.2 5.12)"
/>
<rect x="72" y="5.5"
      width="4.5" height="0.8"
      rx="0.4"

/><rect x="85.6" y="4.82"
      width="0.9" height="0.6"
      rx="0.3"

      transform="rotate(160.0 86.2 5.12)"
/>
<rect x="82" y="5.5"
      width="4.5" height="0.8"
      rx="0.4"

/><rect x="92" y="5.5"
      width="4.5" height="0.8"
      rx="0.4"

/><rect x="4.7" y="15.82"
      width="1.8" height="0.6"
      rx="0.3"

      transform="rotate(0.0 6.2 16.1)"
/>
<rect x="2" y="16.5"
      width="4.5" height="0.8"
      rx="0.4"

/><rect x="14.7" y="15.82"
      width="1.8" height="0.6"
      rx="0.3"

      transform="rotate(20.0 16.2 16.1)"
/>
<rect x="12" y="16.5"
      width="4.5" height="0.8"
      rx="0.4"

/><rect x="24.7" y="15.82"
      width="1.8" height="0.6"
      rx="0.3"

      transform="rotate(40.0 26.2 16.1)"
/>
<rect x="22" y="16.5"
      width="4.5" height="0.8"
      rx="0.4"

/><rect x="34.7" y="15.82"
      width="1.8" height="0.6"
      rx="0.3"

      transform="rotate(60.0 36.2 16.1)"
/>
<rect x="32" y="16.5"
      width="4.5" height="0.8"
      rx="0.4"

/><rect x="44.7" y="15.82"
      width="1.8" height="0.6"
      rx="0.3"

      transform="rotate(80.0 46.2 16.1)"
/>
<rect x="42" y="16.5"
      width="4.5" height="0.8"
      rx="0.4"

/><rect x="54.7" y="15.82"
      width="1.8" height="0.6"
      rx="0.3"

      transform="rotate(100.0 56.2 16.1)"
/>
<rect x="52" y="16.5"
      width="4.5" height="0.8"
      rx="0.4"

/><rect x="64.7" y="15.82"
      width="1.8" height="0.6"
      rx="0.3"

      transform="rotate(120.0 66.2 16.1)"
/>
<rect x="62" y="16.5"
      width="4.5" height="0.8"
      rx="0.4"

/><rect x="74.7" y="15.82"
      width="1.8" height="0.6"
      rx="0.3"

      transform="rotate(140.0 76.2 16.1)"
/>
<rect x="72" y="16.5"
      width="4.5" height="0.8"
      rx="0.4"

/><rect x="84.7" y="15.82"
      width="1.8" height="0.6"
      rx="0.3"

      transform="rotate(160.0 86.2 16.1)"
/>
<rect x="82" y="16.5"
      width="4.5" height="0.8"
      rx="0.4"

/><rect x="92" y="16.5"
      width="4.5" height="1.244"
      rx="0.4"

/><rect x="3.8" y="26.82"
      width="2.7" height="0.6"
      rx="0.3"

      transform="rotate(0.0 6.2 27.1)"
/>
<rect x="2" y="27.5"
      width="4.5" height="0.8"
      rx="0.4"

/><rect x="13.8" y="26.82"
      width="2.7" height="0.6"
      rx="0.3"

      transform="rotate(20.0 16.2 27.1)"
/>
<rect x="12" y="27.5"
      width="4.5" height="0.8"
      rx="0.4"

/><rect x="23.8" y="26.82"
      width="2.7" height="0.6"
      rx="0.3"

      transform="rotate(40.0 26.2 27.1)"
/>
<rect x="22" y="27.5"
      width="4.5" height="0.8"
      rx="0.4"

/><rect x="33.8" y="26.82"
      width="2.7" height="0.6"
      rx="0.3"

      transform="rotate(60.0 36.2 27.1)"
/>
<rect x="32" y="27.5"
      width="4.5" height="0.8"
      rx="0.4"

/><rect x="43.8" y="26.82"
      width="2.7" height="0.6"
      rx="0.3"

      transform="rotate(80.0 46.2 27.1)"
/>
<rect x="42" y="27.5"
      width="4.5" height="0.8"
      rx="0.4"

/><rect x="53.8" y="26.82"
      width="2.7" height="0.6"
      rx="0.3"

      transform="rotate(100.0 56.2 27.1)"
/>
<rect x="52" y="27.5"
      width="4.5" height="0.8"
      rx="0.4"

/><rect x="63.8" y="26.82"
      width="2.7" height="0.6"
      rx="0.3"

      transform="rotate(120.0 66.2 27.1)"
/>
<rect x="62" y="27.5"
      width="4.5" height="0.8"
      rx="0.4"

/><rect x="73.8" y="26.82"
      width="2.7" height="0.6"
      rx="0.3"

      transform="rotate(140.0 76.2 27.1)"
/>
<rect x="72" y="27.5"
      width="4.5" height="0.8"
      rx="0.4"

/><rect x="83.8" y="26.82"
      width="2.7" height="0.6"
      rx="0.3"

      transform="rotate(160.0 86.2 27.1)"
/>
<rect x="82" y="27.5"
      width="4.5" height="0.8"
      rx="0.4"

/><rect x="92" y="27.5"
      width="4.5" height="1.688"
      rx="0.4"

/><rect x="2.9" y="37.82"
      width="3.6" height="0.6"
      rx="0.3"

      transform="rotate(0.0 6.2 38.1)"
/>
<rect x="2" y="38.5"
      width="4.5" height="0.8"
      rx="0.4"

/><rect x="12.9" y="37.82"
      width="3.6" height="0.6"
      rx="0.3"

      transform="rotate(20.0 16.2 38.1)"
/>
<rect x="12" y="38.5"
      width="4.5" height="0.8"
      rx="0.4"

/><rect x="22.9" y="37.82"
      width="3.6" height="0.6"
      rx="0.3"

      transform="rotate(40.0 26.2 38.1)"
/>
<rect x="22" y="38.5"
      width="4.5" height="0.8"
      rx="0.4"

/><rect x="32.9" y="37.82"
      width="3.6" height="0.6"
      rx="0.3"

      transform="rotate(60.0 36.2 38.1)"
/>
<rect x="32" y="38.5"
      width="4.5" height="0.8"
      rx="0.4"

/><rect x="42.9" y="37.82"
      width="3.6" height="0.6"
      rx="0.3"

      transform="rotate(80.0 46.2 38.1)"
/>
<rect x="42" y="38.5"
      width="4.5" height="0.8"
      rx="0.4"

/><rect x="52.9" y="37.82"
      width="3.6" height="0.6"
      rx="0.3"

      transform="rotate(100.0 56.2 38.1)"
/>
<rect x="52" y="38.5"
      width="4.5" height="0.8"
      rx="0.4"

/><rect x="62.9" y="37.82"
      width="3.6" height="0.6"
      rx="0.3"

      transform="rotate(120.0 66.2 38.1)"
/>
<rect x="62" y="38.5"
      width="4.5" height="0.8"
      rx="0.4"

/><rect x="72.9" y="37.82"
      width="3.6" height="0.6"
      rx="0.3"

      transform="rotate(140.0 76.2 38.1)"
/>
<rect x="72" y="38.5"
      width="4.5" height="0.8"
      rx="0.4"

/><rect x="82.9" y="37.82"
      width="3.6" height="0.6"
      rx="0.3"

      transform="rotate(160.0 86.2 38.1)"
/>
<rect x="82" y="38.5"
      width="4.5" height="0.8"
      rx="0.4"

/><rect x="92" y="38.5"
      width="4.5" height="2.132"
      rx="0.4"

/><rect x="2.0" y="48.82"
      width="4.5" height="0.6"
      rx="0.3"

      transform="rotate(0.0 6.2 49.1)"
/>
<rect x="2" y="49.5"
      width="4.5" height="0.8"
      rx="0.4"

/><rect x="12.0" y="48.82"
      width="4.5" height="0.6"
      rx="0.3"

      transform="rotate(20.0 16.2 49.1)"
/>
<rect x="12" y="49.5"
      width="4.5" height="0.8"
      rx="0.4"

/><rect x="22.0" y="48.82"
      width="4.5" height="0.6"
      rx="0.3"

      transform="rotate(40.0 26.2 49.1)"
/>
<rect x="22" y="49.5"
      width="4.5" height="0.8"
      rx="0.4"

/><rect x="32.0" y="48.82"
      width="4.5" height="0.6"
      rx="0.3"

      transform="rotate(60.0 36.2 49.1)"
/>
<rect x="32" y="49.5"
      width="4.5" height="0.8"
      rx="0.4"

/><rect x="42.0" y="48.82"
      width="4.5" height="0.6"
      rx="0.3"

      transform="rotate(80.0 46.2 49.1)"
/>
<rect x="42" y="49.5"
      width="4.5" height="0.8"
      rx="0.4"

/><rect x="52.0" y="48.82"
      width="4.5" height="0.6"
      rx="0.3"

      transform="rotate(100.0 56.2 49.1)"
/>
<rect x="52" y="49.5"
      width="4.5" height="0.8"
      rx="0.4"

/><rect x="62.0" y="48.82"
      width="4.5" height="0.6"
      rx="0.3"

      transform="rotate(120.0 66.2 49.1)"
/>
<rect x="62" y="49.5"
      width="4.5" height="0.8"
      rx="0.4"

/><rect x="72.0" y="48.82"
      width="4.5" height="0.6"
      rx="0.3"

      transform="rotate(140.0 76.2 49.1)"
/>
<rect x="72" y="49.5"
      width="4.5" height="0.8"
      rx="0.4"

/><rect x="82.0" y="48.82"
      width="4.5" height="0.6"
      rx="0.3"

      transform="rotate(160.0 86.2 49.1)"
/>
<rect x="82" y="49.5"
      width="4.5" height="0.8"
      rx="0.4"

/><rect x="92" y="49.5"
      width="4.5" height="2.576"
      rx="0.4"

/><rect x="2.0" y="59.82"
      width="4.5" height="0.6"
      rx="0.3"

      transform="rotate(0.0 6.2 60.1)"
/>
<rect x="2" y="60.5"
      width="4.5" height="1.54"
      rx="0.4"

/><rect x="12.0" y="59.82"
      width="4.5" height="0.6"
      rx="0.3"

      transform="rotate(20.0 16.2 60.1)"
/>
<rect x="12" y="60.5"
      width="4.5" height="1.54"
      rx="0.4"

/><rect x="22.0" y="59.82"
      width="4.5" height="0.6"
      rx="0.3"

      transform="rotate(40.0 26.2 60.1)"
/>
<rect x="22" y="60.5"
      width="4.5" height="1.54"
      rx="0.4"

/><rect x="32.0" y="59.82"
      width="4.5" height="0.6"
      rx="0.3"

      transform="rotate(60.0 36.2 60.1)"
/>
<rect x="32" y="60.5"
      width="4.5" height="1.54"
      rx="0.4"

/><rect x="42.0" y="59.82"
      width="4.5" height="0.6"
      rx="0.3"

      transform="rotate(80.0 46.2 60.1)"
/>
<rect x="42" y="60.5"
      width="4.5" height="1.54"
      rx="0.4"

/><rect x="52.0" y="59.82"
      width="4.5" height="0.6"
      rx="0.3"

      transform="rotate(100.0 56.2 60.1)"
/>
<rect x="52" y="60.5"
      width="4.5" height="1.54"
      rx="0.4"

/><rect x="62.0" y="59.82"
      width="4.5" height="0.6"
      rx="0.3"

      transform="rotate(120.0 66.2 60.1)"
/>
<rect x="62" y="60.5"
      width="4.5" height="1.54"
      rx="0.4"

/><rect x="72.0" y="59.82"
      width="4.5" height="0.6"
      rx="0.3"

      transform="rotate(140.0 76.2 60.1)"
/>
<rect x="72" y="60.5"
      width="4.5" height="1.54"
      rx="0.4"

/><rect x="82.0" y="59.82"
      width="4.5" height="0.6"
      rx="0.3"

      transform="rotate(160.0 86.2 60.1)"
/>
<rect x="82" y="60.5"
      width="4.5" height="1.54"
      rx="0.4"

/><rect x="92" y="60.5"
      width="4.5" height="3.02"
      rx="0.4"

/><rect x="2.0" y="70.82"
      width="4.5" height="0.6"
      rx="0.3"

      transform="rotate(0.0 6.2 71.1)"
/>
<rect x="2" y="71.5"
      width="4.5" height="2.28"
      rx="0.4"

/><rect x="12.0" y="70.82"
      width="4.5" height="0.6"
      rx="0.3"

      transform="rotate(20.0 16.2 71.1)"
/>
<rect x="12" y="71.5"
      width="4.5" height="2.28"
      rx="0.4"

/><rect x="22.0" y="70.82"
      width="4.5" height="0.6"
      rx="0.3"

      transform="rotate(40.0 26.2 71.1)"
/>
<rect x="22" y="71.5"
      width="4.5" height="2.28"
      rx="0.4"

/><rect x="32.0" y="70.82"
      width="4.5" height="0.6"
      rx="0.3"

      transform="rotate(60.0 36.2 71.1)"
/>
<rect x="32" y="71.5"
      width="4.5" height="2.28"
      rx="0.4"

/><rect x="42.0" y="70.82"
      width="4.5" height="0.6"
      rx="0.3"

      transform="rotate(80.0 46.2 71.1)"
/>
<rect x="42" y="71.5"
      width="4.5" height="2.28"
      rx="0.4"

/><rect x="52.0" y="70.82"
      width="4.5" height="0.6"
      rx="0.3"

      transform="rotate(100.0 56.2 71.1)"
/>
<rect x="52" y="71.5"
      width="4.5" height="2.28"
      rx="0.4"

/><rect x="62.0" y="70.82"
      width="4.5" height="0.6"
      rx="0.3"

      transform="rotate(120.0 66.2 71.1)"
/>
<rect x="62" y="71.5"
      width="4.5" height="2.28"
      rx="0.4"

/><rect x="72.0" y="70.82"
      width="4.5" height="0.6"
      rx="0.3"

      transform="rotate(140.0 76.2 71.1)"
/>
<rect x="72" y="71.5"
      width="4.5" height="2.28"
      rx="0.4"

/><rect x="82.0" y="70.82"
      width="4.5" height="0.6"
      rx="0.3"

      transform="rotate(160.0 86.2 71.1)"
/>
<rect x="82" y="71.5"
      width="4.5" height="2.28"
      rx="0.4"

/><rect x="92" y="71.5"
      width="4.5" height="3.464"
      rx="0.4"

/><rect x="2.0" y="81.82"
      width="4.5" height="0.6"
      rx="0.3"

      transform="rotate(0.0 6.2 82.1)"
/>
<rect x="2" y="82.5"
      width="4.5" height="3.02"
      rx="0.4"

/><rect x="12.0" y="81.82"
      width="4.5" height="0.6"
      rx="0.3"

      transform="rotate(20.0 16.2 82.1)"
/>
<rect x="12" y="82.5"
      width="4.5" height="3.02"
      rx="0.4"

/><rect x="22.0" y="81.82"
      width="4.5" height="0.6"
      rx="0.3"

      transform="rotate(40.0 26.2 82.1)"
/>
<rect x="22" y="82.5"
      width="4.5" height="3.02"
      rx="0.4"

/><rect x="32.0" y="81.82"
      width="4.5" height="0.6"
      rx="0.3"

      transform="rotate(60.0 36.2 82.1)"
/>
<rect x="32" y="82.5"
      width="4.5" height="3.02"
      rx="0.4"

/><rect x="42.0" y="81.82"
      width="4.5" height="0.6"
      rx="0.3"

      transform="rotate(80.0 46.2 82.1)"
/>
<rect x="42" y="82.5"
      width="4.5" height="3.02"
      rx="0.4"

/><rect x="52.0" y="81.82"
      width="4.5" height="0.6"
      rx="0.3"

      transform="rotate(100.0 56.2 82.1)"
/>
<rect x="52" y="82.5"
      width="4.5" height="3.02"
      rx="0.4"

/><rect x="62.0" y="81.82"
      width="4.5" height="0.6"
      rx="0.3"

      transform="rotate(120.0 66.2 82.1)"
/>
<rect x="62" y="82.5"
      width="4.5" height="3.02"
      rx="0.4"

/><rect x="72.0" y="81.82"
      width="4.5" height="0.6"
      rx="0.3"

      transform="rotate(140.0 76.2 82.1)"
/>
<rect x="72" y="82.5"
      width="4.5" height="3.02"
      rx="0.4"

/><rect x="82.0" y="81.82"
      width="4.5" height="0.6"
      rx="0.3"

      transform="rotate(160.0 86.2 82.1)"
/>
<rect x="82" y="82.5"
      width="4.5" height="3.02"
      rx="0.4"

/><rect x="92" y="82.5"
      width="4.5" height="3.908"
      rx="0.4"

/><rect x="2.0" y="92.82"
      width="4.5" height="0.6"
      rx="0.3"

      transform="rotate(0.0 6.2 93.1)"
/>
<rect x="2" y="93.5"
      width="4.5" height="3.76"
      rx="0.4"

/><rect x="12.0" y="92.82"
      width="4.5" height="0.6"
      rx="0.3"

      transform="rotate(20.0 16.2 93.1)"
/>
<rect x="12" y="93.5"
      width="4.5" height="3.76"
      rx="0.4"

/><rect x="22.0" y="92.82"
      width="4.5" height="0.6"
      rx="0.3"

      transform="rotate(40.0 26.2 93.1)"
/>
<rect x="22" y="93.5"
      width="4.5" height="3.76"
      rx="0.4"

/><rect x="32.0" y="92.82"
      width="4.5" height="0.6"
      rx="0.3"

      transform="rotate(60.0 36.2 93.1)"
/>
<rect x="32" y="93.5"
      width="4.5" height="3.76"
      rx="0.4"

/><rect x="42.0" y="92.82"
      width="4.5" height="0.6"
      rx="0.3"

      transform="rotate(80.0 46.2 93.1)"
/>
<rect x="42" y="93.5"
      width="4.5" height="3.76"
      rx="0.4"

/><rect x="52.0" y="92.82"
      width="4.5" height="0.6"
      rx="0.3"

      transform="rotate(100.0 56.2 93.1)"
/>
<rect x="52" y="93.5"
      width="4.5" height="3.76"
      rx="0.4"

/><rect x="62.0" y="92.82"
      width="4.5" height="0.6"
      rx="0.3"

      transform="rotate(120.0 66.2 93.1)"
/>
<rect x="62" y="93.5"
      width="4.5" height="3.76"
      rx="0.4"

/><rect x="72.0" y="92.82"
      width="4.5" height="0.6"
      rx="0.3"

      transform="rotate(140.0 76.2 93.1)"
/>
<rect x="72" y="93.5"
      width="4.5" height="3.76"
      rx="0.4"

/><rect x="82.0" y="92.82"
      width="4.5" height="0.6"
      rx="0.3"

      transform="rotate(160.0 86.2 93.1)"
/>
<rect x="82" y="93.5"
      width="4.5" height="3.76"
      rx="0.4"

/><rect x="92" y="93.5"
      width="4.5" height="4.352"
      rx="0.4"

/><rect x="2.0" y="107.82"
      width="4.5" height="0.6"
      rx="0.3"

      transform="rotate(0.0 6.2 1.08e+02)"
/>
<rect x="2" y="108.5"
      width="4.5" height="1.762"
      rx="0.4"

/><rect x="14.7" y="107.82"
      width="1.8" height="0.6"
      rx="0.3"

      transform="rotate(20.0 16.2 1.08e+02)"
/>
<rect x="12" y="108.5"
      width="4.5" height="3.094"
      rx="0.4"

/><rect x="23.8" y="107.82"
      width="2.7" height="0.6"
      rx="0.3"

      transform="rotate(40.0 26.2 1.08e+02)"
/>
<rect x="22" y="108.5"
      width="4.5" height="3.427"
      rx="0.4"

/><rect x="35.6" y="107.82"
      width="0.9" height="0.6"
      rx="0.3"

      transform="rotate(60.0 36.2 1.08e+02)"
/>
<rect x="32" y="108.5"
      width="4.5" height="1.947"
      rx="0.4"

/><rect x="45.6" y="107.82"
      width="0.9" height="0.6"
      rx="0.3"

      transform="rotate(80.0 46.2 1.08e+02)"
/>
<rect x="42" y="108.5"
      width="4.5" height="1.614"
      rx="0.4"

/><rect x="54.7" y="107.82"
      width="1.8" height="0.6"
      rx="0.3"

      transform="rotate(100.0 56.2 1.08e+02)"
/>
<rect x="52" y="108.5"
      width="4.5" height="4.167"
      rx="0.4"

/><rect x="62.0" y="107.82"
      width="4.5" height="0.6"
      rx="0.3"

      transform="rotate(120.0 66.2 1.08e+02)"
/>
<rect x="62" y="108.5"
      width="4.5" height="3.242"
      rx="0.4"

/><rect x="74.7" y="107.82"
      width="1.8" height="0.6"
      rx="0.3"

      transform="rotate(140.0 76.2 1.08e+02)"
/>
<rect x="72" y="108.5"
      width="4.5" height="3.538"
      rx="0.4"

/><rect x="82.9" y="107.82"
      width="3.6" height="0.6"
      rx="0.3"

      transform="rotate(160.0 86.2 1.08e+02)"
/>
<rect x="82" y="108.5"
      width="4.5" height="2.206"
      rx="0.4"

/><rect x="2.0" y="118.82"
      width="4.5" height="0.6"
      rx="0.3"

      transform="rotate(0.0 6.2 1.19e+02)"
/>
<rect x="2" y="119.5"
      width="4.5" height="2.576"
      rx="0.4"

/><rect x="14.7" y="118.82"
      width="1.8" height="0.6"
      rx="0.3"

      transform="rotate(20.0 16.2 1.19e+02)"
/>
<rect x="12" y="119.5"
      width="4.5" height="1.725"
      rx="0.4"

/><rect x="25.6" y="118.82"
      width="0.9" height="0.6"
      rx="0.3"

      transform="rotate(40.0 26.2 1.19e+02)"
/>
<rect x="22" y="119.5"
      width="4.5" height="2.909"
      rx="0.4"

/><rect x="35.6" y="118.82"
      width="0.9" height="0.6"
      rx="0.3"

      transform="rotate(60.0 36.2 1.19e+02)"
/>
<rect x="32" y="119.5"
      width="4.5" height="0.874"
      rx="0.4"

/><rect x="42.9" y="118.82"
      width="3.6" height="0.6"
      rx="0.3"

      transform="rotate(80.0 46.2 1.19e+02)"
/>
<rect x="42" y="119.5"
      width="4.5" height="2.428"
      rx="0.4"

/><rect x="54.7" y="118.82"
      width="1.8" height="0.6"
      rx="0.3"

      transform="rotate(100.0 56.2 1.19e+02)"
/>
<rect x="52" y="119.5"
      width="4.5" height="1.022"
      rx="0.4"

/><rect x="62.0" y="118.82"
      width="4.5" height="0.6"
      rx="0.3"

      transform="rotate(120.0 66.2 1.19e+02)"
/>
<rect x="62" y="119.5"
      width="4.5" height="2.465"
      rx="0.4"

/><rect x="72.9" y="118.82"
      width="3.6" height="0.6"
      rx="0.3"

      transform="rotate(140.0 76.2 1.19e+02)"
/>
<rect x="72" y="119.5"
      width="4.5" height="1.059"
      rx="0.4"

/><rect x="82.0" y="118.82"
      width="4.5" height="0.6"
      rx="0.3"

      transform="rotate(160.0 86.2 1.19e+02)"
/>
<rect x="82" y="119.5"
      width="4.5" height="1.207"
      rx="0.4"

/><rect x="2.0" y="129.82"
      width="4.5" height="0.6"
      rx="0.3"

      transform="rotate(0.0 6.2 1.3e+02)"
/>
<rect x="2" y="130.5"
      width="4.5" height="1.762"
      rx="0.4"

/><rect x="14.7" y="129.82"
      width="1.8" height="0.6"
      rx="0.3"

      transform="rotate(20.0 16.2 1.3e+02)"
/>
<rect x="12" y="130.5"
      width="4.5" height="3.094"
      rx="0.4"

/><rect x="23.8" y="129.82"
      width="2.7" height="0.6"
      rx="0.3"

      transform="rotate(40.0 26.2 1.3e+02)"
/>
<rect x="22" y="130.5"
      width="4.5" height="3.427"
      rx="0.4"

/><rect x="35.6" y="129.82"
      width="0.9" height="0.6"
      rx="0.3"

      transform="rotate(60.0 36.2 1.3e+02)"
/>
<rect x="32" y="130.5"
      width="4.5" height="1.947"
      rx="0.4"

/><rect x="45.6" y="129.82"
      width="0.9" height="0.6"
      rx="0.3"

      transform="rotate(80.0 46.2 1.3e+02)"
/>
<rect x="42" y="130.5"
      width="4.5" height="1.614"
      rx="0.4"

/><rect x="54.7" y="129.82"
      width="1.8" height="0.6"
      rx="0.3"

      transform="rotate(100.0 56.2 1.3e+02)"
/>
<rect x="52" y="130.5"
      width="4.5" height="4.167"
      rx="0.4"

/><rect x="62.0" y="129.82"
      width="4.5" height="0.6"
      rx="0.3"

      transform="rotate(120.0 66.2 1.3e+02)"
/>
<rect x="62" y="130.5"
      width="4.5" height="3.242"
      rx="0.4"

/><rect x="74.7" y="129.82"
      width="1.8" height="0.6"
      rx="0.3"

      transform="rotate(140.0 76.2 1.3e+02)"
/>
<rect x="72" y="130.5"
      width="4.5" height="3.538"
      rx="0.4"

/><rect x="82.9" y="129.82"
      width="3.6" height="0.6"
      rx="0.3"

      transform="rotate(160.0 86.2 1.3e+02)"
/>
<rect x="82" y="130.5"
      width="4.5" height="2.206"
      rx="0.4"

/><rect x="2.0" y="140.82"
      width="4.5" height="0.6"
      rx="0.3"

      transform="rotate(0.0 6.2 1.41e+02)"
/>
<rect x="2" y="141.5"
      width="4.5" height="2.576"
      rx="0.4"

/><rect x="14.7" y="140.82"
      width="1.8" height="0.6"
      rx="0.3"

      transform="rotate(20.0 16.2 1.41e+02)"
/>
<rect x="12" y="141.5"
      width="4.5" height="1.725"
      rx="0.4"

/><rect x="25.6" y="140.82"
      width="0.9" height="0.6"
      rx="0.3"

      transform="rotate(40.0 26.2 1.41e+02)"
/>
<rect x="22" y="141.5"
      width="4.5" height="2.909"
      rx="0.4"

/><rect x="35.6" y="140.82"
      width="0.9" height="0.6"
      rx="0.3"

      transform="rotate(60.0 36.2 1.41e+02)"
/>
<rect x="32" y="141.5"
      width="4.5" height="0.874"
      rx="0.4"

/><rect x="42.9" y="140.82"
      width="3.6" height="0.6"
      rx="0.3"

      transform="rotate(80.0 46.2 1.41e+02)"
/>
<rect x="42" y="141.5"
      width="4.5" height="2.428"
      rx="0.4"

/><rect x="54.7" y="140.82"
      width="1.8" height="0.6"
      rx="0.3"

      transform="rotate(100.0 56.2 1.41e+02)"
/>
<rect x="52" y="141.5"
      width="4.5" height="1.022"
      rx="0.4"

/><rect x="62.0" y="140.82"
      width="4.5" height="0.6"
      rx="0.3"

      transform="rotate(120.0 66.2 1.41e+02)"
/>
<rect x="62" y="141.5"
      width="4.5" height="2.465"
      rx="0.4"

/><rect x="72.9" y="140.82"
      width="3.6" height="0.6"
      rx="0.3"

      transform="rotate(140.0 76.2 1.41e+02)"
/>
<rect x="72" y="141.5"
      width="4.5" height="1.059"
      rx="0.4"

/><rect x="82.0" y="140.82"
      width="4.5" height="0.6"
      rx="0.3"

      transform="rotate(160.0 86.2 1.41e+02)"
/>
<rect x="82" y="141.5"
      width="4.5" height="1.207"
      rx="0.4"

/>
</svg>